<svg id="Layer_1" data-name="Layer 1" xmlns="http://www.w3.org/2000/svg" viewBox="0 0 78.69 20.95"><defs><style>.cls-1{font-size:16.52px;font-family:OpenSans-Regular, Open Sans;letter-spacing:-0.09em;}.cls-2{fill:#231f20;}.cls-3{font-size:18.22px;font-family:OpenSans-Bold, Open Sans;font-weight:700;letter-spacing:-0.13em;}.cls-3,.cls-4{fill:#365aa9;}</style></defs><title>BoomDyno logo</title><text class="cls-1" transform="translate(43.55 15.61)">Dyno</text><path class="cls-2" d="M1.06,17.89h4a7.84,7.84,0,0,1,4,.79,2.76,2.76,0,0,1,1.25,2.51,3.13,3.13,0,0,1-.55,1.91,2.17,2.17,0,0,1-1.45.9v.09a2.81,2.81,0,0,1,1.78,1,3.3,3.3,0,0,1,.55,2,3.32,3.32,0,0,1-1.29,2.78,5.57,5.57,0,0,1-3.49,1H1.06Zm2.75,5.16H5.42A3,3,0,0,0,7,22.7a1.3,1.3,0,0,0,.5-1.15A1.14,1.14,0,0,0,7,20.48a3.45,3.45,0,0,0-1.73-.33H3.81Zm0,2.18v3.39h1.8a2.66,2.66,0,0,0,1.68-.43,1.63,1.63,0,0,0,.55-1.34c0-1.08-.78-1.62-2.32-1.62Z" transform="translate(-1.06 -15.29)"/><path class="cls-2" d="M39,30.9H36.32V25.09A2.91,2.91,0,0,0,36,23.48a1.25,1.25,0,0,0-1.13-.54,1.64,1.64,0,0,0-1.51.76,5,5,0,0,0-.47,2.52V30.9H30.13V21H32.2l.37,1.27h.15a2.68,2.68,0,0,1,1.16-1.07,3.71,3.71,0,0,1,1.73-.39,3.12,3.12,0,0,1,3,1.46h.24a2.64,2.64,0,0,1,1.18-1.08,4,4,0,0,1,1.75-.38,3.47,3.47,0,0,1,2.56.87,3.78,3.78,0,0,1,.87,2.78V30.9H42.52V25.09a2.91,2.91,0,0,0-.36-1.61A1.27,1.27,0,0,0,41,22.94a1.71,1.71,0,0,0-1.49.71A4.05,4.05,0,0,0,39,25.91Z" transform="translate(-1.06 -15.29)"/><text class="cls-3" transform="translate(9.31 15.61)">oo</text><circle class="cls-4" cx="15.64" cy="25.79" r="3.28" transform="translate(-3.52 -13.62) rotate(-5.65)"/><circle class="cls-4" cx="23.75" cy="10.5" r="3.28"/><polygon points="10.79 1.72 12.64 0.72 13.89 5.23 10.79 1.72"/><polygon points="13.4 1.97 14.94 1.92 14.28 5.28 13.4 1.97"/><polygon points="26.37 20.6 28.17 19.52 24.91 16.16 26.37 20.6"/><polygon points="27.47 18.22 28.3 16.92 25.07 15.79 27.47 18.22"/></svg>